<mxfile host="Electron" modified="2025-02-16T14:52:37.627Z" agent="Mozilla/5.0 (Macintosh; Intel Mac OS X 10_15_7) AppleWebKit/537.36 (KHTML, like Gecko) draw.io/24.6.4 Chrome/124.0.6367.207 Electron/30.0.6 Safari/537.36" etag="Y8BT7NCH3aZ3WAK2LYfO" version="24.6.4" type="device">
  <diagram name="Page-1" id="RwYbOuu8pCC2fRdVlnPr">
    <mxGraphModel dx="2879" dy="1356" grid="1" gridSize="10" guides="1" tooltips="1" connect="1" arrows="1" fold="1" page="1" pageScale="1" pageWidth="827" pageHeight="1169" math="0" shadow="0">
      <root>
        <mxCell id="0" />
        <mxCell id="1" parent="0" />
        <mxCell id="50haVbhgXhqvAzX53wH8-1" value="Lambda Function" style="sketch=0;outlineConnect=0;fontColor=#232F3E;gradientColor=none;strokeColor=#232F3E;fillColor=#ffffff;dashed=0;verticalLabelPosition=bottom;verticalAlign=top;align=center;html=1;fontSize=12;fontStyle=0;aspect=fixed;shape=mxgraph.aws4.resourceIcon;resIcon=mxgraph.aws4.lambda_function;shadow=1;" vertex="1" parent="1">
          <mxGeometry x="899" y="877" width="60" height="60" as="geometry" />
        </mxCell>
        <mxCell id="50haVbhgXhqvAzX53wH8-2" value="Lambda Services For&amp;nbsp;&lt;div&gt;Extract The Text From Document&lt;/div&gt;" style="text;html=1;align=center;verticalAlign=middle;resizable=0;points=[];autosize=1;strokeColor=none;fillColor=none;shadow=1;" vertex="1" parent="1">
          <mxGeometry x="827" y="939" width="200" height="40" as="geometry" />
        </mxCell>
        <mxCell id="50haVbhgXhqvAzX53wH8-53" style="edgeStyle=orthogonalEdgeStyle;rounded=0;orthogonalLoop=1;jettySize=auto;html=1;shadow=1;flowAnimation=1;" edge="1" parent="1" source="50haVbhgXhqvAzX53wH8-5">
          <mxGeometry relative="1" as="geometry">
            <mxPoint x="350" y="670" as="targetPoint" />
          </mxGeometry>
        </mxCell>
        <mxCell id="50haVbhgXhqvAzX53wH8-5" value="" style="outlineConnect=0;dashed=0;verticalLabelPosition=bottom;verticalAlign=top;align=center;html=1;shape=mxgraph.aws3.ec2;fillColor=#F58534;gradientColor=none;shadow=1;" vertex="1" parent="1">
          <mxGeometry x="220" y="540" width="60" height="80" as="geometry" />
        </mxCell>
        <mxCell id="50haVbhgXhqvAzX53wH8-6" value="" style="outlineConnect=0;dashed=0;verticalLabelPosition=bottom;verticalAlign=top;align=center;html=1;shape=mxgraph.aws3.ec2;fillColor=#F58534;gradientColor=none;shadow=1;" vertex="1" parent="1">
          <mxGeometry x="370" y="545" width="60" height="80" as="geometry" />
        </mxCell>
        <mxCell id="50haVbhgXhqvAzX53wH8-52" style="edgeStyle=orthogonalEdgeStyle;rounded=0;orthogonalLoop=1;jettySize=auto;html=1;shadow=1;flowAnimation=1;" edge="1" parent="1" source="50haVbhgXhqvAzX53wH8-7">
          <mxGeometry relative="1" as="geometry">
            <mxPoint x="450" y="670" as="targetPoint" />
          </mxGeometry>
        </mxCell>
        <mxCell id="50haVbhgXhqvAzX53wH8-7" value="" style="outlineConnect=0;dashed=0;verticalLabelPosition=bottom;verticalAlign=top;align=center;html=1;shape=mxgraph.aws3.ec2;fillColor=#F58534;gradientColor=none;shadow=1;" vertex="1" parent="1">
          <mxGeometry x="520" y="545" width="60" height="80" as="geometry" />
        </mxCell>
        <mxCell id="50haVbhgXhqvAzX53wH8-10" style="edgeStyle=orthogonalEdgeStyle;rounded=0;orthogonalLoop=1;jettySize=auto;html=1;shadow=1;flowAnimation=1;" edge="1" parent="1" source="50haVbhgXhqvAzX53wH8-8" target="50haVbhgXhqvAzX53wH8-5">
          <mxGeometry relative="1" as="geometry" />
        </mxCell>
        <mxCell id="50haVbhgXhqvAzX53wH8-8" value="" style="aspect=fixed;sketch=0;html=1;dashed=0;whitespace=wrap;verticalLabelPosition=bottom;verticalAlign=top;fillColor=#2875E2;strokeColor=#ffffff;points=[[0.005,0.63,0],[0.1,0.2,0],[0.9,0.2,0],[0.5,0,0],[0.995,0.63,0],[0.72,0.99,0],[0.5,1,0],[0.28,0.99,0]];shape=mxgraph.kubernetes.icon2;prIcon=ep;shadow=1;" vertex="1" parent="1">
          <mxGeometry x="375" y="318" width="50" height="48" as="geometry" />
        </mxCell>
        <mxCell id="50haVbhgXhqvAzX53wH8-9" value="Kubernetes Auto Scale" style="text;html=1;align=center;verticalAlign=middle;resizable=0;points=[];autosize=1;strokeColor=none;fillColor=none;shadow=1;" vertex="1" parent="1">
          <mxGeometry x="414" y="310" width="150" height="30" as="geometry" />
        </mxCell>
        <mxCell id="50haVbhgXhqvAzX53wH8-11" style="edgeStyle=orthogonalEdgeStyle;rounded=0;orthogonalLoop=1;jettySize=auto;html=1;entryX=0.5;entryY=0;entryDx=0;entryDy=0;entryPerimeter=0;shadow=1;flowAnimation=1;" edge="1" parent="1" source="50haVbhgXhqvAzX53wH8-8" target="50haVbhgXhqvAzX53wH8-6">
          <mxGeometry relative="1" as="geometry" />
        </mxCell>
        <mxCell id="50haVbhgXhqvAzX53wH8-14" style="edgeStyle=orthogonalEdgeStyle;rounded=0;orthogonalLoop=1;jettySize=auto;html=1;entryX=0.5;entryY=0;entryDx=0;entryDy=0;entryPerimeter=0;shadow=1;flowAnimation=1;" edge="1" parent="1" source="50haVbhgXhqvAzX53wH8-8" target="50haVbhgXhqvAzX53wH8-7">
          <mxGeometry relative="1" as="geometry" />
        </mxCell>
        <mxCell id="50haVbhgXhqvAzX53wH8-64" style="edgeStyle=orthogonalEdgeStyle;rounded=0;orthogonalLoop=1;jettySize=auto;html=1;shadow=1;flowAnimation=1;" edge="1" parent="1" source="50haVbhgXhqvAzX53wH8-17">
          <mxGeometry relative="1" as="geometry">
            <mxPoint x="400" y="960" as="targetPoint" />
            <Array as="points">
              <mxPoint x="680" y="650" />
              <mxPoint x="680" y="960" />
              <mxPoint x="400" y="960" />
            </Array>
          </mxGeometry>
        </mxCell>
        <mxCell id="50haVbhgXhqvAzX53wH8-17" value="" style="verticalLabelPosition=bottom;html=1;verticalAlign=top;align=center;strokeColor=none;fillColor=#00BEF2;shape=mxgraph.azure.mysql_database;shadow=1;" vertex="1" parent="1">
          <mxGeometry x="905.25" y="625" width="37.5" height="50" as="geometry" />
        </mxCell>
        <mxCell id="50haVbhgXhqvAzX53wH8-18" value="Keep The Informations&lt;div&gt;Like Chat Session and Docuements&lt;/div&gt;" style="text;html=1;align=center;verticalAlign=middle;resizable=0;points=[];autosize=1;strokeColor=none;fillColor=none;shadow=1;" vertex="1" parent="1">
          <mxGeometry x="824" y="685" width="210" height="40" as="geometry" />
        </mxCell>
        <mxCell id="50haVbhgXhqvAzX53wH8-76" style="edgeStyle=orthogonalEdgeStyle;rounded=0;orthogonalLoop=1;jettySize=auto;html=1;shadow=1;flowAnimation=1;" edge="1" parent="1">
          <mxGeometry relative="1" as="geometry">
            <mxPoint x="-579" y="216" as="targetPoint" />
            <mxPoint x="231" y="775.0666666666666" as="sourcePoint" />
            <Array as="points">
              <mxPoint x="-579" y="775" />
              <mxPoint x="-579" y="216" />
            </Array>
          </mxGeometry>
        </mxCell>
        <mxCell id="50haVbhgXhqvAzX53wH8-24" value="Identify the API" style="rounded=0;whiteSpace=wrap;html=1;shadow=1;" vertex="1" parent="1">
          <mxGeometry x="250" y="760" width="290" height="38" as="geometry" />
        </mxCell>
        <mxCell id="50haVbhgXhqvAzX53wH8-29" style="edgeStyle=orthogonalEdgeStyle;rounded=0;orthogonalLoop=1;jettySize=auto;html=1;entryX=0.297;entryY=-0.033;entryDx=0;entryDy=0;entryPerimeter=0;shadow=1;flowAnimation=1;" edge="1" parent="1" source="50haVbhgXhqvAzX53wH8-5" target="50haVbhgXhqvAzX53wH8-24">
          <mxGeometry relative="1" as="geometry" />
        </mxCell>
        <mxCell id="50haVbhgXhqvAzX53wH8-30" style="edgeStyle=orthogonalEdgeStyle;rounded=0;orthogonalLoop=1;jettySize=auto;html=1;entryX=0.731;entryY=-0.1;entryDx=0;entryDy=0;entryPerimeter=0;shadow=1;flowAnimation=1;" edge="1" parent="1" source="50haVbhgXhqvAzX53wH8-7" target="50haVbhgXhqvAzX53wH8-24">
          <mxGeometry relative="1" as="geometry" />
        </mxCell>
        <mxCell id="50haVbhgXhqvAzX53wH8-31" style="edgeStyle=orthogonalEdgeStyle;rounded=0;orthogonalLoop=1;jettySize=auto;html=1;shadow=1;flowAnimation=1;" edge="1" parent="1">
          <mxGeometry relative="1" as="geometry">
            <mxPoint x="400" y="627" as="sourcePoint" />
            <mxPoint x="400" y="670" as="targetPoint" />
          </mxGeometry>
        </mxCell>
        <mxCell id="50haVbhgXhqvAzX53wH8-33" value="&lt;font style=&quot;font-size: 11px;&quot;&gt;If API Is for Extracting Text&amp;nbsp;&lt;span style=&quot;background-color: initial;&quot;&gt;From&amp;nbsp;&lt;/span&gt;&lt;/font&gt;&lt;div style=&quot;font-size: 11px;&quot;&gt;&lt;span style=&quot;background-color: initial;&quot;&gt;&lt;font style=&quot;font-size: 11px;&quot;&gt;the Given Document, So Acknowledge&amp;nbsp;&lt;/font&gt;&lt;/span&gt;&lt;/div&gt;&lt;div style=&quot;font-size: 11px;&quot;&gt;&lt;span style=&quot;background-color: initial;&quot;&gt;&lt;font style=&quot;font-size: 11px;&quot;&gt;the Redis and Mysql Both With Uploaded&amp;nbsp;&lt;/font&gt;&lt;/span&gt;&lt;/div&gt;&lt;div style=&quot;font-size: 11px;&quot;&gt;&lt;font style=&quot;font-size: 11px;&quot;&gt;&lt;span style=&quot;background-color: initial;&quot;&gt;Status&amp;nbsp;&lt;/span&gt;&lt;span style=&quot;background-color: initial;&quot;&gt;And Scheduled the Task in Queue 1 for Text.&lt;/span&gt;&lt;/font&gt;&lt;/div&gt;" style="text;html=1;align=center;verticalAlign=middle;resizable=0;points=[];autosize=1;strokeColor=none;fillColor=none;shadow=1;" vertex="1" parent="1">
          <mxGeometry x="124" y="840" width="280" height="70" as="geometry" />
        </mxCell>
        <mxCell id="50haVbhgXhqvAzX53wH8-39" style="edgeStyle=orthogonalEdgeStyle;rounded=0;orthogonalLoop=1;jettySize=auto;html=1;shadow=1;flowAnimation=1;" edge="1" parent="1">
          <mxGeometry relative="1" as="geometry">
            <mxPoint x="950" y="652" as="targetPoint" />
            <mxPoint x="1255" y="812" as="sourcePoint" />
            <Array as="points">
              <mxPoint x="1255" y="652" />
              <mxPoint x="951" y="652" />
            </Array>
          </mxGeometry>
        </mxCell>
        <mxCell id="50haVbhgXhqvAzX53wH8-34" value="" style="verticalLabelPosition=bottom;html=1;verticalAlign=top;align=center;strokeColor=none;fillColor=#00BEF2;shape=mxgraph.azure.storage_blob;shadow=1;" vertex="1" parent="1">
          <mxGeometry x="1220" y="820" width="70" height="60" as="geometry" />
        </mxCell>
        <mxCell id="50haVbhgXhqvAzX53wH8-36" style="edgeStyle=orthogonalEdgeStyle;rounded=0;orthogonalLoop=1;jettySize=auto;html=1;shadow=1;flowAnimation=1;" edge="1" parent="1">
          <mxGeometry relative="1" as="geometry">
            <mxPoint x="958" y="927" as="sourcePoint" />
            <mxPoint x="1254" y="890" as="targetPoint" />
          </mxGeometry>
        </mxCell>
        <mxCell id="50haVbhgXhqvAzX53wH8-37" value="After Extraction of Text&amp;nbsp;&lt;div&gt;Dump txt&amp;nbsp;&lt;span style=&quot;background-color: initial;&quot;&gt;File to Azure Blob&amp;nbsp;&lt;/span&gt;&lt;/div&gt;" style="text;html=1;align=center;verticalAlign=middle;resizable=0;points=[];autosize=1;strokeColor=none;fillColor=none;shadow=1;" vertex="1" parent="1">
          <mxGeometry x="1010" y="870" width="170" height="40" as="geometry" />
        </mxCell>
        <mxCell id="50haVbhgXhqvAzX53wH8-40" value="Acknowledge in the Database With&amp;nbsp;&lt;div&gt;Stored Location of Blob&lt;/div&gt;" style="text;html=1;align=center;verticalAlign=middle;resizable=0;points=[];autosize=1;strokeColor=none;fillColor=none;shadow=1;" vertex="1" parent="1">
          <mxGeometry x="1010" y="603" width="210" height="40" as="geometry" />
        </mxCell>
        <mxCell id="50haVbhgXhqvAzX53wH8-43" value="Acknowledge SQL Database That Document&amp;nbsp;&lt;span style=&quot;background-color: initial;&quot;&gt;Is Uploaded&amp;nbsp;&lt;/span&gt;&lt;div&gt;&lt;span style=&quot;background-color: initial;&quot;&gt;to Azure blob With Locations&amp;nbsp;&lt;/span&gt;&lt;span style=&quot;background-color: initial;&quot;&gt;and Remove from Queue 1&amp;nbsp;&lt;/span&gt;&lt;span style=&quot;background-color: initial;&quot;&gt;and&amp;nbsp;&lt;/span&gt;&lt;/div&gt;&lt;div&gt;&lt;span style=&quot;background-color: initial;&quot;&gt;Scheduled f&lt;/span&gt;&lt;span style=&quot;background-color: initial;&quot;&gt;or Splitting Via Splitter and Indexed To Weaviate Database&lt;/span&gt;&lt;/div&gt;" style="text;html=1;align=center;verticalAlign=middle;resizable=0;points=[];autosize=1;strokeColor=none;fillColor=none;shadow=1;" vertex="1" parent="1">
          <mxGeometry x="595.25" y="550" width="400" height="60" as="geometry" />
        </mxCell>
        <mxCell id="50haVbhgXhqvAzX53wH8-46" value="" style="image;sketch=0;aspect=fixed;html=1;points=[];align=center;fontSize=12;image=img/lib/mscae/Cache_Redis_Product.svg;shadow=1;" vertex="1" parent="1">
          <mxGeometry x="102" y="1009.5" width="50" height="42" as="geometry" />
        </mxCell>
        <mxCell id="50haVbhgXhqvAzX53wH8-49" value="Call The Lambda Function To Extract&amp;nbsp;&lt;div&gt;the uploaded File Content&lt;/div&gt;" style="text;html=1;align=center;verticalAlign=middle;resizable=0;points=[];autosize=1;strokeColor=none;fillColor=none;shadow=1;" vertex="1" parent="1">
          <mxGeometry x="685.25" y="870" width="220" height="40" as="geometry" />
        </mxCell>
        <mxCell id="50haVbhgXhqvAzX53wH8-58" style="edgeStyle=orthogonalEdgeStyle;rounded=0;orthogonalLoop=1;jettySize=auto;html=1;shadow=1;flowAnimation=1;" edge="1" parent="1">
          <mxGeometry relative="1" as="geometry">
            <mxPoint x="330" y="480" as="sourcePoint" />
            <mxPoint x="898" y="915" as="targetPoint" />
            <Array as="points">
              <mxPoint x="330" y="680" />
              <mxPoint x="520" y="680" />
              <mxPoint x="520" y="714" />
              <mxPoint x="599" y="714" />
              <mxPoint x="599" y="915" />
            </Array>
          </mxGeometry>
        </mxCell>
        <mxCell id="50haVbhgXhqvAzX53wH8-50" value="" style="sketch=0;html=1;aspect=fixed;strokeColor=none;shadow=1;fillColor=#3B8DF1;verticalAlign=top;labelPosition=center;verticalLabelPosition=bottom;shape=mxgraph.gcp2.task_queues_2" vertex="1" parent="1">
          <mxGeometry x="294.51" y="444" width="40.99" height="25" as="geometry" />
        </mxCell>
        <mxCell id="50haVbhgXhqvAzX53wH8-55" value="Celery With Redis Broker To&amp;nbsp;&lt;div&gt;Manage The Task Queue&lt;/div&gt;" style="text;html=1;align=center;verticalAlign=middle;resizable=0;points=[];autosize=1;strokeColor=none;fillColor=none;shadow=1;" vertex="1" parent="1">
          <mxGeometry x="-60" y="798" width="180" height="40" as="geometry" />
        </mxCell>
        <mxCell id="50haVbhgXhqvAzX53wH8-57" style="edgeStyle=orthogonalEdgeStyle;rounded=0;orthogonalLoop=1;jettySize=auto;html=1;entryX=1.02;entryY=0.595;entryDx=0;entryDy=0;entryPerimeter=0;shadow=1;flowAnimation=1;" edge="1" parent="1" source="50haVbhgXhqvAzX53wH8-24" target="50haVbhgXhqvAzX53wH8-46">
          <mxGeometry relative="1" as="geometry">
            <Array as="points">
              <mxPoint x="400" y="1035" />
            </Array>
          </mxGeometry>
        </mxCell>
        <mxCell id="50haVbhgXhqvAzX53wH8-59" value="Task Manager&lt;div&gt;1. Queue 1 for Extract Text: Call Lambda&amp;nbsp;&lt;/div&gt;&lt;div&gt;&lt;span style=&quot;white-space: pre;&quot;&gt;&#x9;&lt;/span&gt;Function For Given Document&lt;/div&gt;&lt;div&gt;2.&amp;nbsp; Queue 2 for Chunking using Spacy Splitter&amp;nbsp;&lt;/div&gt;&lt;div&gt;&lt;span style=&quot;white-space: pre;&quot;&gt;&#x9;&lt;/span&gt;and Indexing to Weaviate&lt;/div&gt;" style="text;html=1;align=left;verticalAlign=middle;resizable=0;points=[];autosize=1;strokeColor=none;fillColor=none;shadow=1;" vertex="1" parent="1">
          <mxGeometry x="-80" y="450" width="270" height="90" as="geometry" />
        </mxCell>
        <mxCell id="50haVbhgXhqvAzX53wH8-68" style="edgeStyle=orthogonalEdgeStyle;rounded=0;orthogonalLoop=1;jettySize=auto;html=1;shadow=1;flowAnimation=1;" edge="1" parent="1" source="50haVbhgXhqvAzX53wH8-60" target="50haVbhgXhqvAzX53wH8-66">
          <mxGeometry relative="1" as="geometry" />
        </mxCell>
        <mxCell id="50haVbhgXhqvAzX53wH8-92" value="" style="edgeStyle=orthogonalEdgeStyle;rounded=0;orthogonalLoop=1;jettySize=auto;html=1;" edge="1" parent="1" source="50haVbhgXhqvAzX53wH8-60" target="50haVbhgXhqvAzX53wH8-7">
          <mxGeometry relative="1" as="geometry" />
        </mxCell>
        <mxCell id="50haVbhgXhqvAzX53wH8-60" value="" style="sketch=0;html=1;aspect=fixed;strokeColor=none;shadow=1;fillColor=#3B8DF1;verticalAlign=top;labelPosition=center;verticalLabelPosition=bottom;shape=mxgraph.gcp2.task_queues_2" vertex="1" parent="1">
          <mxGeometry x="470.01" y="449" width="40.99" height="25" as="geometry" />
        </mxCell>
        <mxCell id="50haVbhgXhqvAzX53wH8-62" value="Queue 2" style="text;html=1;align=center;verticalAlign=middle;resizable=0;points=[];autosize=1;strokeColor=none;fillColor=none;shadow=1;" vertex="1" parent="1">
          <mxGeometry x="455.5" y="419" width="70" height="30" as="geometry" />
        </mxCell>
        <mxCell id="50haVbhgXhqvAzX53wH8-63" value="Queue 1" style="text;html=1;align=center;verticalAlign=middle;resizable=0;points=[];autosize=1;strokeColor=none;fillColor=none;shadow=1;" vertex="1" parent="1">
          <mxGeometry x="282" y="419" width="70" height="30" as="geometry" />
        </mxCell>
        <mxCell id="50haVbhgXhqvAzX53wH8-65" style="edgeStyle=orthogonalEdgeStyle;rounded=0;orthogonalLoop=1;jettySize=auto;html=1;shadow=1;flowAnimation=1;" edge="1" parent="1">
          <mxGeometry relative="1" as="geometry">
            <mxPoint x="313" y="490" as="sourcePoint" />
            <mxPoint x="108" y="1004" as="targetPoint" />
            <Array as="points">
              <mxPoint x="313" y="537" />
              <mxPoint x="108" y="537" />
              <mxPoint x="108" y="1005" />
            </Array>
          </mxGeometry>
        </mxCell>
        <mxCell id="50haVbhgXhqvAzX53wH8-70" style="edgeStyle=orthogonalEdgeStyle;rounded=0;orthogonalLoop=1;jettySize=auto;html=1;shadow=1;flowAnimation=1;" edge="1" parent="1" source="50haVbhgXhqvAzX53wH8-66">
          <mxGeometry relative="1" as="geometry">
            <mxPoint x="100" y="1030" as="targetPoint" />
            <Array as="points">
              <mxPoint x="971" y="120" />
              <mxPoint x="-160" y="120" />
              <mxPoint x="-160" y="1030" />
            </Array>
          </mxGeometry>
        </mxCell>
        <mxCell id="50haVbhgXhqvAzX53wH8-66" value="" style="sketch=0;outlineConnect=0;fontColor=#232F3E;gradientColor=none;fillColor=#ED7100;strokeColor=none;dashed=0;verticalLabelPosition=bottom;verticalAlign=top;align=center;html=1;fontSize=12;fontStyle=0;aspect=fixed;pointerEvents=1;shape=mxgraph.aws4.braket_state_vector;shadow=1;" vertex="1" parent="1">
          <mxGeometry x="932" y="240" width="78" height="78" as="geometry" />
        </mxCell>
        <mxCell id="50haVbhgXhqvAzX53wH8-67" value="Vector Database" style="text;html=1;align=center;verticalAlign=middle;resizable=0;points=[];autosize=1;strokeColor=none;fillColor=none;shadow=1;" vertex="1" parent="1">
          <mxGeometry x="822" y="264" width="110" height="30" as="geometry" />
        </mxCell>
        <mxCell id="50haVbhgXhqvAzX53wH8-69" value="Chunk The Text And Indexed to the Vector DB" style="text;html=1;align=center;verticalAlign=middle;resizable=0;points=[];autosize=1;strokeColor=none;fillColor=none;shadow=1;" vertex="1" parent="1">
          <mxGeometry x="635.25" y="444" width="270" height="30" as="geometry" />
        </mxCell>
        <mxCell id="50haVbhgXhqvAzX53wH8-71" value="Acknowledge Redis With Mysql With Success Status" style="text;html=1;align=center;verticalAlign=middle;resizable=0;points=[];autosize=1;strokeColor=none;fillColor=none;shadow=1;" vertex="1" parent="1">
          <mxGeometry x="233" y="90" width="300" height="30" as="geometry" />
        </mxCell>
        <mxCell id="50haVbhgXhqvAzX53wH8-72" value="Redis Caching Database" style="text;html=1;align=center;verticalAlign=middle;resizable=0;points=[];autosize=1;strokeColor=none;fillColor=none;shadow=1;" vertex="1" parent="1">
          <mxGeometry x="40" y="1058" width="160" height="30" as="geometry" />
        </mxCell>
        <mxCell id="50haVbhgXhqvAzX53wH8-74" style="edgeStyle=orthogonalEdgeStyle;rounded=0;orthogonalLoop=1;jettySize=auto;html=1;shadow=1;flowAnimation=1;entryX=0.5;entryY=0;entryDx=0;entryDy=0;entryPerimeter=0;" edge="1" parent="1" target="50haVbhgXhqvAzX53wH8-8">
          <mxGeometry relative="1" as="geometry">
            <mxPoint x="400" y="226" as="targetPoint" />
            <mxPoint x="-570" y="184" as="sourcePoint" />
          </mxGeometry>
        </mxCell>
        <mxCell id="50haVbhgXhqvAzX53wH8-73" value="" style="image;aspect=fixed;perimeter=ellipsePerimeter;html=1;align=center;shadow=1;dashed=0;spacingTop=3;image=img/lib/active_directory/user.svg;" vertex="1" parent="1">
          <mxGeometry x="-600" y="160" width="20" height="54.05" as="geometry" />
        </mxCell>
        <mxCell id="50haVbhgXhqvAzX53wH8-75" value="API Called" style="text;html=1;align=center;verticalAlign=middle;resizable=0;points=[];autosize=1;strokeColor=none;fillColor=none;shadow=1;" vertex="1" parent="1">
          <mxGeometry x="-140" y="152" width="80" height="30" as="geometry" />
        </mxCell>
        <mxCell id="50haVbhgXhqvAzX53wH8-77" value="If Chat API for Document&amp;nbsp;&lt;div&gt;Chatting&lt;/div&gt;" style="text;html=1;align=center;verticalAlign=middle;resizable=0;points=[];autosize=1;strokeColor=none;fillColor=none;shadow=1;" vertex="1" parent="1">
          <mxGeometry x="-159" y="741" width="160" height="40" as="geometry" />
        </mxCell>
        <mxCell id="50haVbhgXhqvAzX53wH8-80" style="edgeStyle=orthogonalEdgeStyle;rounded=0;orthogonalLoop=1;jettySize=auto;html=1;shadow=1;flowAnimation=1;" edge="1" parent="1" source="50haVbhgXhqvAzX53wH8-78">
          <mxGeometry relative="1" as="geometry">
            <mxPoint x="-160" y="1030.5" as="targetPoint" />
          </mxGeometry>
        </mxCell>
        <mxCell id="50haVbhgXhqvAzX53wH8-78" value="" style="sketch=0;outlineConnect=0;fontColor=#232F3E;gradientColor=none;fillColor=#7AA116;strokeColor=none;dashed=0;verticalLabelPosition=bottom;verticalAlign=top;align=center;html=1;fontSize=12;fontStyle=0;aspect=fixed;pointerEvents=1;shape=mxgraph.aws4.iot_analytics_channel;shadow=1;" vertex="1" parent="1">
          <mxGeometry x="-420" y="991.5" width="65" height="78" as="geometry" />
        </mxCell>
        <mxCell id="50haVbhgXhqvAzX53wH8-79" value="Connected" style="text;html=1;align=center;verticalAlign=middle;resizable=0;points=[];autosize=1;strokeColor=none;fillColor=none;shadow=1;" vertex="1" parent="1">
          <mxGeometry x="-450" y="738" width="80" height="30" as="geometry" />
        </mxCell>
        <mxCell id="50haVbhgXhqvAzX53wH8-81" value="" style="endArrow=classic;startArrow=classic;html=1;rounded=0;shadow=1;flowAnimation=1;" edge="1" parent="1">
          <mxGeometry width="50" height="50" relative="1" as="geometry">
            <mxPoint x="-443" y="1036.6666666666667" as="sourcePoint" />
            <mxPoint x="-603" y="216" as="targetPoint" />
            <Array as="points">
              <mxPoint x="-603" y="1037" />
            </Array>
          </mxGeometry>
        </mxCell>
        <mxCell id="50haVbhgXhqvAzX53wH8-82" value="Once Connected&lt;span style=&quot;background-color: initial;&quot;&gt;Two Way&amp;nbsp;&lt;/span&gt;&lt;div&gt;&lt;span style=&quot;background-color: initial;&quot;&gt;Communications Started&lt;/span&gt;&lt;/div&gt;" style="text;html=1;align=center;verticalAlign=middle;resizable=0;points=[];autosize=1;strokeColor=none;fillColor=none;shadow=1;" vertex="1" parent="1">
          <mxGeometry x="-790" y="540" width="170" height="40" as="geometry" />
        </mxCell>
        <mxCell id="50haVbhgXhqvAzX53wH8-83" value="Channel Will Handled The 2&amp;nbsp;&lt;div&gt;Way Communication&lt;/div&gt;" style="text;html=1;align=center;verticalAlign=middle;resizable=0;points=[];autosize=1;strokeColor=none;fillColor=none;shadow=1;" vertex="1" parent="1">
          <mxGeometry x="-490" y="1088" width="180" height="40" as="geometry" />
        </mxCell>
        <mxCell id="50haVbhgXhqvAzX53wH8-84" value="" style="endArrow=classic;html=1;rounded=0;shadow=1;flowAnimation=1;" edge="1" parent="1">
          <mxGeometry width="50" height="50" relative="1" as="geometry">
            <mxPoint x="475.5" y="804" as="sourcePoint" />
            <mxPoint x="476" y="1130" as="targetPoint" />
          </mxGeometry>
        </mxCell>
        <mxCell id="50haVbhgXhqvAzX53wH8-85" value="If Document Selection API" style="text;html=1;align=center;verticalAlign=middle;resizable=0;points=[];autosize=1;strokeColor=none;fillColor=none;shadow=1;" vertex="1" parent="1">
          <mxGeometry x="475.25" y="1021.5" width="160" height="30" as="geometry" />
        </mxCell>
        <mxCell id="50haVbhgXhqvAzX53wH8-86" value="" style="verticalLabelPosition=bottom;sketch=0;aspect=fixed;html=1;verticalAlign=top;strokeColor=none;align=center;outlineConnect=0;shape=mxgraph.citrix.process;shadow=1;" vertex="1" parent="1">
          <mxGeometry x="458.99" y="1140" width="52" height="62" as="geometry" />
        </mxCell>
        <mxCell id="50haVbhgXhqvAzX53wH8-87" value="Identify the New Document&amp;nbsp;&lt;div&gt;And Add to Session&lt;/div&gt;" style="text;html=1;align=center;verticalAlign=middle;resizable=0;points=[];autosize=1;strokeColor=none;fillColor=none;shadow=1;" vertex="1" parent="1">
          <mxGeometry x="298" y="1169" width="170" height="40" as="geometry" />
        </mxCell>
        <mxCell id="50haVbhgXhqvAzX53wH8-88" style="edgeStyle=orthogonalEdgeStyle;rounded=0;orthogonalLoop=1;jettySize=auto;html=1;entryX=0.479;entryY=1.167;entryDx=0;entryDy=0;entryPerimeter=0;shadow=1;flowAnimation=1;" edge="1" parent="1" source="50haVbhgXhqvAzX53wH8-86" target="50haVbhgXhqvAzX53wH8-18">
          <mxGeometry relative="1" as="geometry">
            <Array as="points">
              <mxPoint x="640" y="1171" />
              <mxPoint x="640" y="840" />
              <mxPoint x="925" y="840" />
            </Array>
          </mxGeometry>
        </mxCell>
        <mxCell id="50haVbhgXhqvAzX53wH8-89" style="edgeStyle=orthogonalEdgeStyle;rounded=0;orthogonalLoop=1;jettySize=auto;html=1;entryX=0.84;entryY=-0.083;entryDx=0;entryDy=0;entryPerimeter=0;shadow=1;flowAnimation=1;" edge="1" parent="1" source="50haVbhgXhqvAzX53wH8-60" target="50haVbhgXhqvAzX53wH8-46">
          <mxGeometry relative="1" as="geometry" />
        </mxCell>
        <mxCell id="50haVbhgXhqvAzX53wH8-93" value="User" style="text;html=1;align=center;verticalAlign=middle;resizable=0;points=[];autosize=1;strokeColor=none;fillColor=none;" vertex="1" parent="1">
          <mxGeometry x="-616" y="122" width="50" height="30" as="geometry" />
        </mxCell>
      </root>
    </mxGraphModel>
  </diagram>
</mxfile>
